# xmcd CD database file
#
# Track frame offsets:
#	150
#	14495
#	28183
#	41203
#	54384
#	66009
#	79644
#	93171
#	107399
#	120955
#	135639
#	149552
#	162817
#	183154
#	197237
#	210581
#	221856
#	234809
#	249349
#	263124
#	283260
#	302614
#	314938
#	328081
#	343560
#
# Disc length: 4783 seconds
#
# Revision: 0
# Processed by: cddbd v1.5.2PL0 Copyright (c) Steve Scherf et al.
# Submitted via: CDex 1.51
#
DISCID=6c12ad19
DTITLE=Bix Beiderbecke - The Essential Bix
DYEAR=1900
DGENRE=Jazz
TTITLE0=Riverboat Shuffle
TTITLE1=Clementine
TTITLE2=Way Down Yonder in New Orleans
TTITLE3=Royal Garden Blues
TTITLE4=Tiger Rag
TTITLE5=Singin' the Blues
TTITLE6=Baby Won't You Please Come Home
TTITLE7=I'm Coming Virginia
TTITLE8=Three Blind Mice
TTITLE9=Clarinet Marmalade
TTITLE10=Dardanella
TTITLE11=Lonely Melody
TTITLE12=My Melancholy Baby
TTITLE13=Ostrich Walk
TTITLE14=The Juana
TTITLE15=Copenhagen
TTITLE16=At The Jazz Ball
TTITLE17=Ol' Man River
TTITLE18=From Monday On
TTITLE19=Sweet Sue - Just You
TTITLE20=Washboard Blues
TTITLE21=Tain't So, Honey, Tain't So
TTITLE22=Idolizing
TTITLE23=Oh, Miss Hannah
TTITLE24=Rhythm King
EXTD=
EXTT0=
EXTT1=
EXTT2=
EXTT3=
EXTT4=
EXTT5=
EXTT6=
EXTT7=
EXTT8=
EXTT9=
EXTT10=
EXTT11=
EXTT12=
EXTT13=
EXTT14=
EXTT15=
EXTT16=
EXTT17=
EXTT18=
EXTT19=
EXTT20=
EXTT21=
EXTT22=
EXTT23=
EXTT24=
PLAYORDER=
